<?xml version="1.0" encoding="UTF-8"?>
<!DOCTYPE svg PUBLIC "-//W3C//DTD SVG 1.1//EN" "http://www.w3.org/Graphics/SVG/1.1/DTD/svg11.dtd">
<!-- Creator: CorelDRAW X8 -->
<svg xmlns="http://www.w3.org/2000/svg" xml:space="preserve" width="108.961mm" height="42.5856mm" version="1.1" style="shape-rendering:geometricPrecision; text-rendering:geometricPrecision; image-rendering:optimizeQuality; fill-rule:evenodd; clip-rule:evenodd"
viewBox="0 0 10464 4090"
 xmlns:xlink="http://www.w3.org/1999/xlink">
 <defs>
  <style type="text/css">
   <![CDATA[
    .fil4 {fill:#F4D33D}
    .fil5 {fill:#E3B829}
    .fil3 {fill:#EFE52B}
    .fil6 {fill:#B39330}
    .fil1 {fill:#417370}
    .fil0 {fill:#FEFEFE;fill-rule:nonzero}
    .fil8 {fill:#9C9C9C;fill-rule:nonzero}
    .fil2 {fill:#417370;fill-rule:nonzero}
    .fil7 {fill:#40726F;fill-rule:nonzero}
   ]]>
  </style>
 </defs>
 <g id="Camada_x0020_1">
  <metadata id="CorelCorpID_0Corel-Layer"/>
  <g id="_1812296676464">
   <path class="fil0" d="M9687 2579l26 0 0 -77c0,-4 1,-8 2,-12 3,-20 16,-34 35,-34 3,0 6,1 9,1l0 -24c-3,-1 -5,-1 -8,-1 -17,0 -33,12 -40,31l-1 0 -1 -28 -23 0c1,13 1,28 1,45l0 99z"/>
   <path class="fil1" d="M4440 15c148,0 293,20 430,58l1253 1708 0 8 -808 0c0,-4 0,-8 0,-12 0,-563 -393,-1019 -877,-1019 -484,0 -876,456 -876,1019 0,4 0,8 0,12l-806 0c0,-5 0,-10 0,-15 0,-972 754,-1759 1684,-1759zm1669 1992c-13,97 -33,191 -59,282l-641 923c-274,202 -609,321 -969,321 -855,0 -1560,-665 -1669,-1526l814 0c89,452 437,789 853,789 416,0 765,-337 854,-789l817 0z"/>
   <path class="fil2" d="M0 3446l0 -3446 76 0 2078 1948 0 -1840 736 0 0 637c-73,106 -132,218 -179,339 -86,215 -129,446 -129,693 0,247 43,478 129,692 47,119 106,231 179,337l0 767 -69 0 -2086 -1947 0 1820 -735 0z"/>
   <polygon class="fil3" points="6542,3367 6542,484 7038,1171 7829,4 8891,4 7576,1892 9186,4090 7985,4090 6993,2704 "/>
   <polygon class="fil4" points="5093,4090 7013,1943 8575,4090 7985,4090 6993,2704 6052,4090 "/>
   <polygon class="fil5" points="7013,1944 5227,4 6195,4 7038,1171 7829,4 8370,4 "/>
   <polygon class="fil6" points="7013,1943 5507,4090 4984,4090 6452,1977 5004,4 5594,4 "/>
   <path class="fil0" d="M9104 3030l-28 -46 -716 -977 -220 0 750 1023 -133 0 0 0 219 0 0 0 128 0zm-746 -1241l615 -862 -219 0 -199 263 -418 599 221 0z"/>
   <path class="fil3" d="M8299 1556l0 233 -163 0 163 -233zm0 451l0 218 -160 -218 160 0z"/>
   <polygon class="fil4" points="8415,1709 8261,1789 8136,1789 8554,1190 8752,927 8972,927 "/>
   <path class="fil6" d="M8261 1789l154 -80 -58 80 -96 0zm839 1241l-942 -1023 201 0 716 977 28 46 -3 0z"/>
   <polygon class="fil5" points="8158,2007 9100,3030 8975,3030 8975,3030 8755,3030 8755,3030 8889,3030 8139,2007 "/>
   <path class="fil3" d="M8938 2407l0 -400 -294 0 294 400zm0 -618l0 -452 -315 452 315 0z"/>
   <polygon class="fil4" points="9093,2161 8798,2007 8644,2007 9825,3618 10153,3618 10110,3548 "/>
   <path class="fil6" d="M8798 2007l295 154 -113 -154 -182 0zm1139 -1610l-1281 1392 304 0 992 -1392 -15 0z"/>
   <polygon class="fil5" points="8656,1789 9937,397 9616,397 9312,801 8623,1789 "/>
   <path class="fil3" d="M8299 1556l0 233 -163 0 163 -233zm0 451l0 218 -160 -218 160 0z"/>
   <polygon class="fil4" points="8415,1709 8261,1789 8136,1789 8554,1190 8752,927 8972,927 "/>
   <path class="fil6" d="M8261 1789l154 -80 -58 80 -96 0zm839 1241l-942 -1023 201 0 716 977 28 46 -3 0z"/>
   <polygon class="fil5" points="8158,2007 9100,3030 8975,3030 8975,3030 8755,3030 8755,3030 8889,3030 8139,2007 "/>
   <path class="fil3" d="M8938 2407l0 -400 -294 0 294 400zm0 -618l0 -452 -315 452 315 0z"/>
   <path class="fil6" d="M8798 2007l295 154 -113 -154 -182 0zm1139 -1610l-1281 1392 304 0 992 -1392 -15 0z"/>
   <polygon class="fil5" points="8656,1789 9937,397 9616,397 9312,801 8623,1789 "/>
   <path class="fil7" d="M10464 3447l-39 -63 -1009 -1377 -303 0 1055 1440 119 0 0 0 177 0zm-1070 -1658l889 -1247 -303 0 -274 364 -616 883 304 0z"/>
   <path class="fil1" d="M10464 3447l-39 -63 -1009 -1377 -303 0 1055 1440 119 0 0 0 177 0zm-1070 -1658l889 -1247 -303 0 -274 364 -616 883 304 0z"/>
   <path class="fil3" d="M10189 1701c109,0 198,88 198,197 0,109 -89,197 -198,197 -109,0 -197,-88 -197,-197 0,-109 88,-197 197,-197l0 0z"/>
   <path class="fil4" d="M10058 2045l131 -147 116 160c-32,23 -72,37 -116,37 -50,0 -96,-19 -131,-50z"/>
   <path class="fil5" d="M10189 1898l-133 -145c35,-32 82,-52 133,-52l0 0c42,0 81,13 114,35l-114 162z"/>
   <path class="fil6" d="M10189 1898l-113 162c-51,-36 -84,-95 -84,-162 0,-65 32,-123 81,-159l116 159z"/>
   <path class="fil8" d="M295 3955c0,31 -8,56 -24,73 -10,11 -22,20 -36,26 -14,6 -28,9 -44,9 -14,0 -28,-3 -41,-8 -13,-6 -24,-13 -34,-23 -9,-9 -15,-19 -19,-28 -4,-10 -7,-22 -8,-35 -1,-12 -1,-32 -1,-60 0,-27 0,-47 1,-60 1,-12 4,-24 8,-34 4,-10 10,-19 19,-28 10,-10 21,-17 34,-23 13,-5 27,-8 41,-8 19,0 35,3 49,10 13,7 27,18 41,32l-15 15c-13,-13 -24,-22 -35,-28 -11,-6 -24,-9 -40,-9 -10,0 -21,2 -31,6 -9,4 -18,10 -26,18 -5,5 -10,10 -12,16 -3,6 -6,13 -7,22 -2,9 -3,19 -4,30 0,12 0,25 0,41 0,24 0,42 1,55 1,12 3,23 7,32 3,8 8,16 15,23 7,7 16,13 26,17 10,4 20,6 31,6 12,0 24,-2 35,-7 11,-5 20,-12 28,-22 6,-8 11,-17 14,-26 3,-9 4,-21 4,-34l0 -27 -81 0 0 -20 104 0 0 49zm225 8l-141 0c0,26 5,46 17,59 11,14 27,21 49,21 12,0 22,-2 30,-5 9,-4 17,-10 26,-19l17 12c-11,11 -22,19 -33,24 -12,5 -25,8 -41,8 -19,0 -35,-4 -48,-12 -13,-8 -22,-20 -29,-35 -7,-16 -10,-35 -10,-58 0,-17 2,-31 5,-44 4,-13 10,-24 17,-33 6,-9 15,-15 25,-20 11,-5 22,-8 35,-8 13,0 24,3 34,7 10,4 18,11 25,20 8,8 13,19 17,31 4,12 5,26 5,42l0 10zm-21 -18c-1,-10 -1,-17 -2,-21 -1,-5 -3,-11 -5,-17 -5,-11 -12,-19 -21,-25 -10,-6 -21,-9 -32,-9 -12,0 -23,3 -32,9 -10,6 -17,14 -21,25 -3,6 -5,12 -6,17 0,5 -1,12 -1,21l120 0zm222 -72l-16 16c-6,-7 -12,-11 -18,-13 -5,-2 -12,-3 -21,-3 -8,0 -15,1 -22,4 -7,4 -13,8 -18,14 -5,6 -8,12 -11,20 -2,7 -3,15 -3,23l0 126 -22 0 0 -204 22 0 0 27c6,-9 14,-17 25,-22 11,-5 22,-8 35,-8 10,0 19,2 26,5 8,3 15,8 23,15zm194 90l-142 0c0,26 6,46 17,59 12,14 28,21 50,21 12,0 22,-2 30,-5 9,-4 17,-10 26,-19l16 12c-11,11 -22,19 -33,24 -11,5 -24,8 -41,8 -18,0 -34,-4 -47,-12 -13,-8 -23,-20 -29,-35 -7,-16 -10,-35 -10,-58 0,-17 2,-31 5,-44 4,-13 9,-24 16,-33 7,-9 16,-15 26,-20 11,-5 22,-8 35,-8 12,0 24,3 34,7 10,4 18,11 25,20 7,8 13,19 17,31 3,12 5,26 5,42l0 10zm-22 -18c0,-10 -1,-17 -1,-21 -1,-5 -3,-11 -6,-17 -4,-11 -11,-19 -21,-25 -9,-6 -20,-9 -32,-9 -11,0 -22,3 -31,9 -10,6 -17,14 -21,25 -3,6 -5,12 -6,17 -1,5 -1,12 -2,21l120 0zm249 115l-21 0 0 -126c0,-20 -5,-35 -15,-46 -10,-10 -24,-15 -42,-15 -12,0 -22,2 -31,7 -8,4 -15,11 -20,21 -4,9 -6,20 -6,33l0 126 -22 0 0 -204 22 0 0 24c15,-18 35,-27 60,-27 23,0 41,7 54,20 14,13 21,32 21,57l0 130zm225 -29c-11,12 -21,21 -31,25 -10,4 -22,7 -36,7 -14,0 -26,-3 -37,-7 -11,-5 -21,-12 -29,-21 -8,-10 -14,-21 -18,-34 -4,-13 -6,-27 -6,-43 0,-22 3,-40 11,-56 7,-15 17,-27 31,-36 13,-8 29,-13 48,-13 14,0 26,3 36,7 10,5 20,13 31,25l-15 13c-6,-6 -11,-11 -16,-15 -6,-4 -11,-7 -17,-8 -5,-2 -12,-2 -19,-2 -24,0 -42,9 -55,27 -5,7 -8,15 -10,24 -2,9 -4,21 -4,34 0,13 2,25 4,34 2,9 5,17 10,25 13,18 31,27 55,27 10,0 20,-2 27,-6 8,-4 17,-11 25,-20l15 13zm90 -259c0,4 -1,8 -4,11 -3,3 -7,5 -11,5 -5,0 -9,-2 -12,-5 -3,-3 -5,-7 -5,-11 0,-4 2,-8 5,-11 3,-3 7,-5 11,-5 5,0 9,2 12,5 3,3 4,7 4,11zm-5 288l-21 0 0 -204 21 0 0 204zm224 0l-22 0 0 -20c-8,8 -17,14 -26,18 -10,3 -22,5 -36,5 -10,0 -19,-1 -26,-2 -8,-1 -14,-3 -20,-6 -5,-3 -10,-7 -14,-11 -10,-10 -15,-23 -15,-40 0,-18 6,-33 19,-43 13,-10 30,-16 52,-16l66 0 0 -23c0,-16 -4,-29 -13,-37 -9,-8 -24,-12 -44,-12 -15,0 -26,2 -34,5 -9,4 -16,11 -23,20l-15 -13c6,-8 12,-15 19,-19 6,-5 14,-8 23,-10 9,-2 19,-3 30,-3 52,0 79,23 79,67l0 140zm-22 -71l0 -26 -63 0c-35,0 -52,13 -52,41 0,13 4,23 13,30 8,6 22,10 40,10 11,0 21,-1 29,-3 8,-2 15,-7 22,-13 7,-7 11,-20 11,-39zm395 71l-22 0 0 -126c0,-20 -5,-35 -14,-46 -10,-10 -24,-15 -42,-15 -18,0 -32,5 -42,15 -10,10 -16,24 -16,42l0 130 -21 0 0 -126c0,-20 -5,-35 -15,-46 -9,-10 -23,-15 -41,-15 -13,0 -23,2 -32,7 -8,4 -15,11 -19,21 -5,9 -7,20 -7,33l0 126 -22 0 0 -204 22 0 0 24c15,-18 35,-27 61,-27 10,0 19,2 27,5 9,3 16,7 22,12 7,6 12,12 16,21 16,-25 39,-38 69,-38 12,0 22,2 31,5 9,4 17,9 23,15 14,13 22,32 22,57l0 130zm231 -97l-142 0c0,26 6,46 17,59 11,14 28,21 49,21 12,0 22,-2 31,-5 8,-4 17,-10 26,-19l16 12c-11,11 -22,19 -33,24 -11,5 -25,8 -41,8 -19,0 -34,-4 -47,-12 -13,-8 -23,-20 -30,-35 -6,-16 -10,-35 -10,-58 0,-17 2,-31 6,-44 4,-13 9,-24 16,-33 7,-9 16,-15 26,-20 10,-5 22,-8 34,-8 13,0 24,3 34,7 10,4 19,11 26,20 7,8 13,19 16,31 4,12 6,26 6,42l0 10zm-22 -18c0,-10 -1,-17 -2,-21 -1,-5 -2,-11 -5,-17 -4,-11 -11,-19 -21,-25 -10,-6 -20,-9 -32,-9 -12,0 -22,3 -32,9 -9,6 -16,14 -21,25 -3,6 -4,12 -5,17 -1,5 -2,12 -2,21l120 0zm249 115l-22 0 0 -126c0,-20 -5,-35 -14,-46 -10,-10 -24,-15 -42,-15 -12,0 -23,2 -31,7 -9,4 -15,11 -20,21 -4,9 -7,20 -7,33l0 126 -21 0 0 -204 21 0 0 24c16,-18 36,-27 60,-27 23,0 41,7 55,20 14,13 21,32 21,57l0 130zm152 0l-18 0c-11,0 -20,-2 -27,-7 -7,-4 -13,-11 -17,-18 -4,-9 -6,-18 -6,-28l0 -135 -27 0 0 -16 27 0 0 -65 22 0 0 65 46 0 0 16 -46 0 0 135c0,23 10,34 31,34l15 0 0 19zm218 -102c0,11 -1,21 -2,31 -2,10 -4,19 -8,28 -4,9 -9,17 -16,23 -15,15 -34,23 -56,23 -23,0 -42,-8 -57,-23 -7,-6 -12,-14 -16,-23 -4,-9 -6,-18 -8,-28 -1,-9 -2,-20 -2,-31 0,-17 2,-33 6,-47 3,-13 10,-25 20,-35 15,-15 33,-23 57,-23 22,0 41,8 56,23 7,7 12,14 16,23 4,9 6,18 8,28 1,10 2,20 2,31zm-22 0c0,-16 -1,-29 -3,-40 -3,-11 -8,-20 -15,-28 -12,-12 -26,-17 -42,-17 -17,0 -32,5 -43,17 -8,8 -12,17 -15,28 -2,12 -3,25 -3,40 0,15 1,28 3,40 3,11 7,21 15,28 12,12 26,18 43,18 16,0 30,-6 42,-18 7,-7 12,-17 15,-28 2,-11 3,-24 3,-40zm346 102l-21 0 0 -26c-6,8 -12,13 -18,18 -7,4 -13,7 -20,8 -8,2 -15,3 -23,3 -21,0 -38,-6 -50,-18 -17,-18 -26,-47 -26,-87 0,-40 9,-69 26,-87 6,-5 13,-10 21,-13 9,-3 18,-5 29,-5 13,0 24,3 34,7 10,4 19,11 27,22l0 -123 21 0 0 301zm-21 -102c0,-26 -4,-47 -12,-62 -8,-16 -23,-23 -46,-23 -23,0 -38,7 -46,23 -8,15 -12,36 -12,62 0,26 4,47 12,62 8,16 23,24 46,24 23,0 38,-8 46,-24 8,-15 12,-36 12,-62zm255 5l-142 0c0,26 6,46 17,59 12,14 28,21 50,21 11,0 22,-2 30,-5 8,-4 17,-10 26,-19l16 12c-11,11 -22,19 -33,24 -11,5 -24,8 -41,8 -18,0 -34,-4 -47,-12 -13,-8 -23,-20 -29,-35 -7,-16 -10,-35 -10,-58 0,-17 1,-31 5,-44 4,-13 9,-24 16,-33 7,-9 16,-15 26,-20 10,-5 22,-8 34,-8 13,0 25,3 35,7 9,4 18,11 25,20 7,8 13,19 17,31 3,12 5,26 5,42l0 10zm-22 -18c0,-10 -1,-17 -1,-21 -1,-5 -3,-11 -6,-17 -4,-11 -11,-19 -21,-25 -10,-6 -20,-9 -32,-9 -11,0 -22,3 -31,9 -10,6 -17,14 -22,25 -2,6 -4,12 -5,17 -1,5 -1,12 -2,21l120 0zm410 115l-27 0 -72 -139 -83 0 0 139 -23 0 0 -301 115 0c17,0 32,3 45,9 13,6 23,16 30,28 8,12 11,27 11,43 0,23 -6,41 -18,55 -12,14 -29,23 -51,27l73 139zm-26 -220c0,-20 -6,-35 -19,-46 -12,-10 -28,-15 -48,-15l-89 0 0 122 89 0c10,0 19,-1 27,-4 8,-2 15,-6 21,-11 6,-5 10,-11 14,-19 3,-8 5,-17 5,-27zm121 -68c0,4 -2,8 -5,11 -3,3 -6,5 -11,5 -4,0 -8,-2 -11,-5 -3,-3 -5,-7 -5,-11 0,-4 2,-8 5,-11 3,-3 6,-5 11,-5 4,0 8,2 11,5 3,3 5,7 5,11zm-5 288l-22 0 0 -204 22 0 0 204zm226 -58c0,12 -3,23 -10,32 -6,9 -16,16 -28,21 -13,5 -27,8 -44,8 -34,0 -62,-10 -82,-30l15 -14c15,16 38,25 67,25 20,0 35,-4 45,-11 11,-7 16,-17 16,-31 0,-10 -3,-18 -9,-24 -7,-5 -17,-9 -30,-10l-34 -3c-41,-4 -61,-21 -61,-54 0,-11 3,-21 9,-30 6,-9 14,-16 25,-20 11,-5 24,-8 39,-8 14,0 28,2 40,6 12,4 23,9 32,16l-15 14c-15,-11 -35,-17 -57,-17 -17,0 -30,4 -38,10 -9,7 -14,17 -14,29 0,11 3,19 10,25 7,5 17,9 32,10l32 3c20,1 34,6 45,14 10,7 15,21 15,39zm210 29c-10,12 -21,21 -31,25 -10,4 -22,7 -36,7 -14,0 -26,-3 -37,-7 -11,-5 -20,-12 -28,-21 -8,-10 -14,-21 -18,-34 -5,-13 -7,-27 -7,-43 0,-22 4,-40 11,-56 7,-15 18,-27 31,-36 14,-8 30,-13 48,-13 15,0 27,3 37,7 10,5 20,13 30,25l-14 13c-6,-6 -12,-11 -17,-15 -5,-4 -11,-7 -16,-8 -6,-2 -13,-2 -20,-2 -24,0 -42,9 -54,27 -5,7 -9,15 -11,24 -2,9 -3,21 -3,34 0,13 1,25 3,34 2,9 6,17 11,25 12,18 30,27 54,27 11,0 20,-2 28,-6 8,-4 16,-11 25,-20l14 13zm217 -73c0,11 -1,21 -3,31 -1,10 -3,19 -7,28 -4,9 -9,17 -16,23 -15,15 -34,23 -56,23 -23,0 -42,-8 -57,-23 -7,-6 -12,-14 -16,-23 -4,-9 -6,-18 -8,-28 -1,-9 -2,-20 -2,-31 0,-17 2,-33 6,-47 3,-13 10,-25 20,-35 15,-15 33,-23 57,-23 22,0 41,8 56,23 7,7 12,14 16,23 4,9 6,18 7,28 2,10 3,20 3,31zm-22 0c0,-16 -1,-29 -3,-40 -3,-11 -8,-20 -15,-28 -12,-12 -26,-17 -42,-17 -18,0 -32,5 -43,17 -8,8 -12,17 -15,28 -2,12 -3,25 -3,40 0,15 1,28 3,40 3,11 7,21 15,28 12,12 26,18 43,18 16,0 30,-6 42,-18 7,-7 12,-17 15,-28 2,-11 3,-24 3,-40zm236 44c0,12 -3,23 -10,32 -7,9 -16,16 -29,21 -12,5 -26,8 -43,8 -35,0 -62,-10 -83,-30l15 -14c16,16 39,25 68,25 19,0 35,-4 45,-11 11,-7 16,-17 16,-31 0,-10 -3,-18 -10,-24 -6,-5 -16,-9 -29,-10l-34 -3c-41,-4 -62,-21 -62,-54 0,-11 3,-21 9,-30 6,-9 15,-16 26,-20 11,-5 24,-8 39,-8 14,0 28,2 40,6 12,4 23,9 32,16l-15 14c-16,-11 -35,-17 -57,-17 -17,0 -30,4 -39,10 -9,7 -13,17 -13,29 0,11 3,19 10,25 7,5 17,9 31,10l33 3c19,1 34,6 45,14 10,7 15,21 15,39z"/>
  </g>
 </g>
</svg>
